<mxfile host="app.diagrams.net" modified="2024-06-02T15:22:43.847Z" agent="Mozilla/5.0 (Windows NT 10.0; Win64; x64) AppleWebKit/537.36 (KHTML, like Gecko) Chrome/124.0.0.0 Safari/537.36" etag="HelV7xsVWuaww0rm0cKp" version="24.4.13" type="google">
  <diagram name="Trang-1" id="ZcSQBmqeKU-Nabm8Fpk5">
    <mxGraphModel grid="1" page="1" gridSize="10" guides="1" tooltips="1" connect="1" arrows="1" fold="1" pageScale="1" pageWidth="827" pageHeight="1169" math="0" shadow="0">
      <root>
        <mxCell id="0" />
        <mxCell id="1" parent="0" />
        <mxCell id="7EiTKjeA-CGK7tcgET5x-10" value="Search User" style="rounded=0;orthogonalLoop=1;jettySize=auto;html=1;exitX=0;exitY=0.5;exitDx=0;exitDy=0;entryX=1;entryY=0.25;entryDx=0;entryDy=0;startArrow=classic;startFill=1;endArrow=none;endFill=0;" edge="1" parent="1" source="7EiTKjeA-CGK7tcgET5x-1">
          <mxGeometry relative="1" as="geometry">
            <mxPoint x="404.32000000000016" y="-840.24" as="sourcePoint" />
            <mxPoint x="160" y="-839.84" as="targetPoint" />
          </mxGeometry>
        </mxCell>
        <mxCell id="7EiTKjeA-CGK7tcgET5x-1" value="Chat application" style="ellipse;whiteSpace=wrap;html=1;aspect=fixed;" vertex="1" parent="1">
          <mxGeometry x="400" y="-920" width="160" height="160" as="geometry" />
        </mxCell>
        <mxCell id="7EiTKjeA-CGK7tcgET5x-2" value="Admin" style="whiteSpace=wrap;html=1;aspect=fixed;" vertex="1" parent="1">
          <mxGeometry x="680" y="-920" width="160" height="160" as="geometry" />
        </mxCell>
        <mxCell id="COJ0roB30y8Gs7OS2wMT-2" value="Manage Notification" style="edgeStyle=orthogonalEdgeStyle;rounded=0;orthogonalLoop=1;jettySize=auto;html=1;entryX=0.5;entryY=0;entryDx=0;entryDy=0;exitX=0.688;exitY=0;exitDx=0;exitDy=0;exitPerimeter=0;" edge="1" parent="1" source="7EiTKjeA-CGK7tcgET5x-3" target="7EiTKjeA-CGK7tcgET5x-1">
          <mxGeometry x="-0.07" relative="1" as="geometry">
            <mxPoint x="80" y="-930" as="sourcePoint" />
            <mxPoint x="480" y="-930" as="targetPoint" />
            <Array as="points">
              <mxPoint x="110" y="-950" />
              <mxPoint x="480" y="-950" />
            </Array>
            <mxPoint as="offset" />
          </mxGeometry>
        </mxCell>
        <mxCell id="COJ0roB30y8Gs7OS2wMT-3" value="Manage Group" style="edgeStyle=orthogonalEdgeStyle;rounded=0;orthogonalLoop=1;jettySize=auto;html=1;exitX=0.5;exitY=1;exitDx=0;exitDy=0;entryX=0.5;entryY=1;entryDx=0;entryDy=0;" edge="1" parent="1" source="7EiTKjeA-CGK7tcgET5x-3" target="7EiTKjeA-CGK7tcgET5x-1">
          <mxGeometry relative="1" as="geometry">
            <Array as="points">
              <mxPoint x="110" y="-760" />
              <mxPoint x="110" y="-730" />
              <mxPoint x="480" y="-730" />
            </Array>
          </mxGeometry>
        </mxCell>
        <mxCell id="7EiTKjeA-CGK7tcgET5x-3" value="User" style="whiteSpace=wrap;html=1;aspect=fixed;" vertex="1" parent="1">
          <mxGeometry y="-920" width="160" height="160" as="geometry" />
        </mxCell>
        <mxCell id="7EiTKjeA-CGK7tcgET5x-6" value="" style="endArrow=classic;startArrow=classic;html=1;rounded=0;exitX=1;exitY=0.5;exitDx=0;exitDy=0;entryX=0.063;entryY=0.748;entryDx=0;entryDy=0;entryPerimeter=0;" edge="1" parent="1" target="7EiTKjeA-CGK7tcgET5x-1">
          <mxGeometry width="50" height="50" relative="1" as="geometry">
            <mxPoint x="160" y="-800" as="sourcePoint" />
            <mxPoint x="400" y="-800" as="targetPoint" />
          </mxGeometry>
        </mxCell>
        <mxCell id="7EiTKjeA-CGK7tcgET5x-7" value="Chat Message" style="edgeLabel;html=1;align=center;verticalAlign=middle;resizable=0;points=[];" connectable="0" vertex="1" parent="7EiTKjeA-CGK7tcgET5x-6">
          <mxGeometry x="0.0327" y="-1" relative="1" as="geometry">
            <mxPoint x="-9" as="offset" />
          </mxGeometry>
        </mxCell>
        <mxCell id="7EiTKjeA-CGK7tcgET5x-8" value="" style="endArrow=classic;html=1;rounded=0;exitX=0.985;exitY=0.85;exitDx=0;exitDy=0;entryX=0.194;entryY=0.879;entryDx=0;entryDy=0;startArrow=classic;startFill=1;exitPerimeter=0;entryPerimeter=0;" edge="1" parent="1" target="7EiTKjeA-CGK7tcgET5x-1">
          <mxGeometry width="50" height="50" relative="1" as="geometry">
            <mxPoint x="160.00000000000014" y="-780.0000000000001" as="sourcePoint" />
            <mxPoint x="425.83145750507845" y="-779.4314575050787" as="targetPoint" />
          </mxGeometry>
        </mxCell>
        <mxCell id="7EiTKjeA-CGK7tcgET5x-9" value="Friend Request&amp;nbsp;" style="edgeLabel;html=1;align=center;verticalAlign=middle;resizable=0;points=[];" connectable="0" vertex="1" parent="7EiTKjeA-CGK7tcgET5x-8">
          <mxGeometry x="-0.0515" relative="1" as="geometry">
            <mxPoint x="-9" as="offset" />
          </mxGeometry>
        </mxCell>
        <mxCell id="7EiTKjeA-CGK7tcgET5x-11" value="Posting" style="rounded=0;orthogonalLoop=1;jettySize=auto;html=1;startArrow=classic;startFill=1;exitX=1.001;exitY=0.117;exitDx=0;exitDy=0;exitPerimeter=0;entryX=0.03;entryY=0.319;entryDx=0;entryDy=0;entryPerimeter=0;" edge="1" parent="1" target="7EiTKjeA-CGK7tcgET5x-1">
          <mxGeometry relative="1" as="geometry">
            <mxPoint x="159.99999999999986" y="-868.1600000000001" as="sourcePoint" />
            <mxPoint x="390" y="-870" as="targetPoint" />
          </mxGeometry>
        </mxCell>
        <mxCell id="7EiTKjeA-CGK7tcgET5x-12" value="List User" style="edgeStyle=orthogonalEdgeStyle;rounded=0;orthogonalLoop=1;jettySize=auto;html=1;entryX=0.998;entryY=0.388;entryDx=0;entryDy=0;entryPerimeter=0;exitX=0.024;exitY=0.635;exitDx=0;exitDy=0;exitPerimeter=0;" edge="1" parent="1" source="7EiTKjeA-CGK7tcgET5x-1">
          <mxGeometry relative="1" as="geometry">
            <mxPoint x="398.24" y="-819.44" as="sourcePoint" />
            <mxPoint x="160.00000000000006" y="-820.0000000000001" as="targetPoint" />
            <Array as="points">
              <mxPoint x="281" y="-818" />
              <mxPoint x="281" y="-820" />
            </Array>
          </mxGeometry>
        </mxCell>
        <mxCell id="7EiTKjeA-CGK7tcgET5x-13" value="" style="endArrow=classic;startArrow=none;html=1;rounded=0;entryX=1;entryY=0.5;entryDx=0;entryDy=0;exitX=0;exitY=0.5;exitDx=0;exitDy=0;startFill=0;" edge="1" parent="1" source="7EiTKjeA-CGK7tcgET5x-2" target="7EiTKjeA-CGK7tcgET5x-1">
          <mxGeometry width="50" height="50" relative="1" as="geometry">
            <mxPoint x="390" y="-670" as="sourcePoint" />
            <mxPoint x="440" y="-720" as="targetPoint" />
          </mxGeometry>
        </mxCell>
        <mxCell id="7EiTKjeA-CGK7tcgET5x-14" value="Manage post" style="edgeLabel;html=1;align=center;verticalAlign=middle;resizable=0;points=[];" connectable="0" vertex="1" parent="7EiTKjeA-CGK7tcgET5x-13">
          <mxGeometry x="0.0622" y="-1" relative="1" as="geometry">
            <mxPoint as="offset" />
          </mxGeometry>
        </mxCell>
        <mxCell id="7EiTKjeA-CGK7tcgET5x-15" value="" style="endArrow=classic;startArrow=none;html=1;rounded=0;entryX=0.966;entryY=0.33;entryDx=0;entryDy=0;entryPerimeter=0;startFill=0;" edge="1" parent="1" target="7EiTKjeA-CGK7tcgET5x-1">
          <mxGeometry width="50" height="50" relative="1" as="geometry">
            <mxPoint x="679" y="-870" as="sourcePoint" />
            <mxPoint x="555.6800000000001" y="-865.12" as="targetPoint" />
          </mxGeometry>
        </mxCell>
        <mxCell id="7EiTKjeA-CGK7tcgET5x-16" value="Manage user" style="edgeLabel;html=1;align=center;verticalAlign=middle;resizable=0;points=[];" connectable="0" vertex="1" parent="7EiTKjeA-CGK7tcgET5x-15">
          <mxGeometry x="0.181" y="-1" relative="1" as="geometry">
            <mxPoint as="offset" />
          </mxGeometry>
        </mxCell>
        <mxCell id="7EiTKjeA-CGK7tcgET5x-17" value="Login" style="rounded=0;orthogonalLoop=1;jettySize=auto;html=1;exitX=1;exitY=0.75;exitDx=0;exitDy=0;entryX=0.254;entryY=0.054;entryDx=0;entryDy=0;entryPerimeter=0;" edge="1" parent="1" target="7EiTKjeA-CGK7tcgET5x-1">
          <mxGeometry x="-0.1448" y="1" relative="1" as="geometry">
            <mxPoint x="160" y="-909.6800000000001" as="sourcePoint" />
            <mxPoint x="405.76" y="-910" as="targetPoint" />
            <mxPoint as="offset" />
          </mxGeometry>
        </mxCell>
        <mxCell id="7EiTKjeA-CGK7tcgET5x-18" value="Login" style="edgeStyle=orthogonalEdgeStyle;rounded=0;orthogonalLoop=1;jettySize=auto;html=1;exitX=0.01;exitY=0.123;exitDx=0;exitDy=0;entryX=0.825;entryY=0.129;entryDx=0;entryDy=0;entryPerimeter=0;exitPerimeter=0;" edge="1" parent="1" source="7EiTKjeA-CGK7tcgET5x-2" target="7EiTKjeA-CGK7tcgET5x-1">
          <mxGeometry relative="1" as="geometry">
            <mxPoint x="680" y="-900" as="sourcePoint" />
            <mxPoint x="551.0400000000002" y="-899.36" as="targetPoint" />
          </mxGeometry>
        </mxCell>
        <mxCell id="7EiTKjeA-CGK7tcgET5x-19" value="Register" style="rounded=0;orthogonalLoop=1;jettySize=auto;html=1;exitX=0.12;exitY=0.179;exitDx=0;exitDy=0;entryX=1.01;entryY=0.185;entryDx=0;entryDy=0;entryPerimeter=0;exitPerimeter=0;endArrow=none;endFill=0;startArrow=classic;startFill=1;" edge="1" parent="1" source="7EiTKjeA-CGK7tcgET5x-1" target="7EiTKjeA-CGK7tcgET5x-3">
          <mxGeometry x="0.0808" y="1" relative="1" as="geometry">
            <mxPoint as="offset" />
          </mxGeometry>
        </mxCell>
        <mxCell id="7EiTKjeA-CGK7tcgET5x-22" value="" style="endArrow=classic;html=1;rounded=0;edgeStyle=orthogonalEdgeStyle;exitX=0.75;exitY=1;exitDx=0;exitDy=0;" edge="1" parent="1" source="7EiTKjeA-CGK7tcgET5x-3" target="7EiTKjeA-CGK7tcgET5x-1">
          <mxGeometry width="50" height="50" relative="1" as="geometry">
            <mxPoint x="33.44000000000017" y="-759.0400000000001" as="sourcePoint" />
            <mxPoint x="462.4000000000001" y="-760.0000000000001" as="targetPoint" />
            <Array as="points">
              <mxPoint x="120" y="-750" />
              <mxPoint x="462" y="-750" />
            </Array>
          </mxGeometry>
        </mxCell>
        <mxCell id="7EiTKjeA-CGK7tcgET5x-23" value="Manage Profile" style="edgeLabel;html=1;align=center;verticalAlign=middle;resizable=0;points=[];" connectable="0" vertex="1" parent="7EiTKjeA-CGK7tcgET5x-22">
          <mxGeometry x="0.152" y="1" relative="1" as="geometry">
            <mxPoint x="-39" as="offset" />
          </mxGeometry>
        </mxCell>
        <mxCell id="COJ0roB30y8Gs7OS2wMT-1" value="Manage Contact" style="edgeStyle=orthogonalEdgeStyle;rounded=0;orthogonalLoop=1;jettySize=auto;html=1;exitX=0.75;exitY=0;exitDx=0;exitDy=0;entryX=0.369;entryY=0.013;entryDx=0;entryDy=0;entryPerimeter=0;" edge="1" parent="1" source="7EiTKjeA-CGK7tcgET5x-3" target="7EiTKjeA-CGK7tcgET5x-1">
          <mxGeometry x="-0.0584" relative="1" as="geometry">
            <Array as="points">
              <mxPoint x="120" y="-930" />
              <mxPoint x="459" y="-930" />
            </Array>
            <mxPoint as="offset" />
          </mxGeometry>
        </mxCell>
        <mxCell id="COJ0roB30y8Gs7OS2wMT-4" value="Call" style="edgeStyle=orthogonalEdgeStyle;rounded=0;orthogonalLoop=1;jettySize=auto;html=1;startArrow=classic;startFill=1;" edge="1" parent="1" source="7EiTKjeA-CGK7tcgET5x-3" target="7EiTKjeA-CGK7tcgET5x-1">
          <mxGeometry x="-0.0346" relative="1" as="geometry">
            <Array as="points">
              <mxPoint x="100" y="-710" />
              <mxPoint x="498" y="-710" />
            </Array>
            <mxPoint as="offset" />
          </mxGeometry>
        </mxCell>
      </root>
    </mxGraphModel>
  </diagram>
</mxfile>
